<?xml version="1.0" encoding="utf-8"?>
<!-- Generator: Adobe Illustrator 21.0.2, SVG Export Plug-In . SVG Version: 6.00 Build 0)  -->
<svg version="1.1" id="Capa_1" xmlns="http://www.w3.org/2000/svg" xmlns:xlink="http://www.w3.org/1999/xlink" x="0px" y="0px"
	 viewBox="0 0 321 338" style="enable-background:new 0 0 321 338;" xml:space="preserve">
<style type="text/css">
	.st0{display:none;fill:#EF6100;}
	.st1{fill:none;stroke:#EF6100;stroke-width:12;stroke-miterlimit:10;}
	.st2{display:none;fill:none;}
	.st3{fill:#EF6100;}
</style>
<path class="st0" d="M222.8,24h-15.7c-43.6,0-79.1,35.5-79.1,79.1v33.4h-26.8c-2.8,0-5,2.2-5,5v40c0,2.8,2.2,5,5,5H128V309
	c0,2.8,2.2,5,5,5h40c2.8,0,5-2.2,5-5V186.5h39.8c2.8,0,5-2.2,5-5v-40c0-2.8-2.2-5-5-5H178v-33.4C178,87,191.1,74,207.1,74h15.7
	c2.8,0,5-2.2,5-5V29C227.8,26.2,225.6,24,222.8,24z"/>
<path class="st1" d="M300,330H22c-6.6,0-12-5.4-12-12V20c0-6.6,5.4-12,12-12h278c6.6,0,12,5.4,12,12v298
	C312,324.6,306.6,330,300,330z"/>
<line class="st2" x1="162" y1="-50" x2="162" y2="441"/>
<line class="st2" x1="-96" y1="169" x2="428" y2="169"/>
<g>
	<path class="st3" d="M286.7,89.9c-1.3-1.3-3.4-1.7-5.1-1.3l-8.5,3c5.1-5.9,8.5-12.3,10.6-18.2c0.8-2.1,0.4-3.8-0.8-5.1
		c-1.3-1.3-3.4-1.7-5.1-0.8c-11.9,5.1-22,9.3-30.5,11.9c0,0.4-0.4,0-0.8,0c-6.8-3.8-23.3-12.3-35.1-12.3
		c-30,0.4-54.2,25.8-54.2,56.7v1.7c-44-8.5-68.1-21.2-94.4-48.7l-4.2-4.2l-2.5,5.1c-14.4,27.5-4.2,52.5,12.3,69.4
		c-7.6-1.3-12.7-3.8-17.4-7.6c-1.7-1.3-3.8-1.7-5.9-0.4c-1.7,0.8-2.5,3.4-2.1,5.5c5.9,19.9,20.7,36,36.8,45.7
		c-7.6,0-14-0.8-20.3-5.1c-1.7-0.8-4.2-0.8-5.9,0.4s-2.5,3.4-1.7,5.5c7.6,21.6,22.4,33,46.1,36c-12.3,7.2-28.4,13.1-53.3,13.5
		c-2.5,0-4.7,1.7-5.5,3.8c-0.8,2.5,0,4.7,1.7,6.3c15.2,12.3,49.1,19.5,91,19.5c74.5,0,135.4-66.4,135.4-148.1v-1.3
		c9.3-4.7,16.9-13.5,20.7-25.8C288.4,93.3,288,91.1,286.7,89.9z M261.4,114l-2.5,0.8v7.2c0,77-57.1,139.7-127,139.7
		c-38.5,0-64.3-6.3-78.3-13.1c29.2-2.1,46.1-11.4,59.3-21.6l10.6-7.6h-12.7c-24.1,0-38.9-6.8-47.4-22.9c7.6,2.5,15.7,2.5,24.5,2.1
		c3.4-0.4,6.8-0.4,10.2-0.4l1.3-8.5c-16.1-4.7-35.1-19-44.4-38.5c8.5,3.8,17.8,4.7,26.2,4.7h13.1l-10.6-7.6
		c-8.9-6.3-35.1-28.8-22.4-60.9c27.1,26.7,52.9,38.9,99.5,47.4l5.1,0.8v-11.9c0-26.2,20.3-47.8,45.7-48.2c9.7-0.4,25.8,8.5,30.5,11
		c2.5,1.3,5.1,1.7,7.6,0.8c6.3-2.1,14-5.1,22.4-8.5c-3.8,6.3-8.9,12.3-15.7,17.8c-1.7,1.3-2.1,3.8-1.3,5.9s3.4,3,5.5,2.1l16.5-5.5
		C274,104.7,269.4,111,261.4,114z"/>
	<path class="st3" d="M250.5,82c-45.4-17.7-81-13.7-90,48.5C111.3,125.7,80.7,107,59,82c-6.6,21.5-6.7,43.9,21.5,69.5
		C24.3,136.6,56.8,164.1,92,193c-57-5.7-29,27,15,28.5c-10.7,18.9-35.2,25.2-61.5,26c18.8,15.1,67.8,17,118,13.5
		c55.9-23,96.5-61.5,97.5-140l23-25.5l-22,4.5l18-29L250.5,82z"/>
</g>
</svg>
