<?xml version="1.0" encoding="utf-8"?>
<!-- Generator: Adobe Illustrator 21.0.2, SVG Export Plug-In . SVG Version: 6.00 Build 0)  -->
<svg version="1.1" id="Layer_1" xmlns="http://www.w3.org/2000/svg" xmlns:xlink="http://www.w3.org/1999/xlink" x="0px" y="0px"
	 viewBox="0 0 96.5 83.5" style="enable-background:new 0 0 96.5 83.5;" xml:space="preserve">
<style type="text/css">
	.st0{fill:#E4A930;}
</style>
<title>collection2</title>
<path class="st0" d="M62.9,2.7H32.1C15.8,2.7,2.5,15.9,2.5,32.3c0,9.8,4.9,19,13,24.5v20.9c0,1.7,1.4,3.1,3.1,3.1
	c0.8,0,1.5-0.3,2.1-0.8l19.6-18.1h22.6c16.4,0,29.6-13.3,29.6-29.6S79.2,2.7,62.9,2.7z M62.9,56.9H38.3L20.5,73.4V54l-1.2-0.7
	C7.7,46.2,4,31.1,11.1,19.4c4.5-7.3,12.4-11.8,21-11.8h30.7c13.6,0,24.6,11,24.6,24.6S76.5,56.9,62.9,56.9
	C62.9,56.9,62.9,56.9,62.9,56.9z"/>
</svg>
