<?xml version="1.0" encoding="utf-8"?>
<!-- Generator: Adobe Illustrator 21.0.2, SVG Export Plug-In . SVG Version: 6.00 Build 0)  -->
<svg version="1.1" id="Layer_1" xmlns="http://www.w3.org/2000/svg" xmlns:xlink="http://www.w3.org/1999/xlink" x="0px" y="0px"
	 viewBox="0 0 100 101.7" style="enable-background:new 0 0 100 101.7;" xml:space="preserve">
<style type="text/css">
	.st0{fill:#E4A930;}
</style>
<path class="st0" d="M80.1,69.9c-2.5,0-5.1,0.7-7.3,2c-1.8,1-3.2,2.3-4.4,3.9l-35-20.3c0.2-0.5,0.4-1.1,0.6-1.7
	c0.9-3.2,0.6-6.5-0.7-9.5l35-20.2c2.7,3.8,7.2,6.1,11.9,6.1c2.5,0,5.1-0.7,7.3-2c3.4-1.9,5.8-5.1,6.8-8.9s0.5-7.7-1.5-11
	C90.1,3.8,85.3,1,80.1,1c-2.5,0-5.1,0.7-7.3,2c-6.3,3.7-8.9,11.4-6.2,18l-35,20.3c-2.7-3.6-7.1-5.8-11.7-5.8c-2.5,0-5.1,0.7-7.3,2
	c-6.9,4-9.3,13-5.3,19.9c2.6,4.5,7.4,7.3,12.6,7.3c2.5,0,5.1-0.7,7.3-2c1.8-1.1,3.4-2.5,4.6-4.2l35,20.2c-1.8,4.1-1.6,8.9,0.8,13.1
	c2.6,4.5,7.4,7.3,12.6,7.3c2.5,0,5.1-0.7,7.3-2c3.4-1.9,5.8-5.1,6.8-8.9s0.5-7.7-1.5-11C90.1,72.7,85.3,69.9,80.1,69.9z M74.5,5.9
	c1.7-1,3.6-1.5,5.6-1.5c4,0,7.7,2.1,9.6,5.6c1.5,2.6,1.9,5.6,1.1,8.4c-0.8,2.9-2.6,5.3-5.2,6.8c-1.7,1-3.6,1.5-5.6,1.5
	c-4,0-7.7-2.1-9.6-5.6C67.4,15.8,69.2,9,74.5,5.9z M25.5,59.6c-1.7,1-3.6,1.5-5.6,1.5c-4,0-7.7-2.1-9.6-5.6
	c-3.1-5.2-1.3-12.1,4-15.1c1.7-1,3.6-1.5,5.6-1.5c4,0,7.7,2.1,9.6,5.6c1.5,2.6,1.9,5.6,1.1,8.4C29.9,55.7,28,58.1,25.5,59.6z
	 M90.8,87.3c-0.8,2.9-2.6,5.3-5.2,6.8c-1.7,1-3.6,1.5-5.6,1.5c-4,0-7.7-2.1-9.6-5.6c-3.1-5.3-1.3-12.1,4.1-15.2
	c1.7-1,3.6-1.5,5.6-1.5c4,0,7.7,2.1,9.6,5.6C91.2,81.4,91.6,84.4,90.8,87.3z"/>
</svg>
