<?xml version="1.0" encoding="utf-8"?>
<!-- Generator: Adobe Illustrator 21.0.2, SVG Export Plug-In . SVG Version: 6.00 Build 0)  -->
<svg version="1.1" id="Layer_1" xmlns="http://www.w3.org/2000/svg" xmlns:xlink="http://www.w3.org/1999/xlink" x="0px" y="0px"
	 viewBox="0 0 96.3 80.7" style="enable-background:new 0 0 96.3 80.7;" xml:space="preserve">
<style type="text/css">
	.st0{fill:none;}
	.st1{fill:#E4A930;}
</style>
<path class="st0" d="M66.9,6.7c-6.7,0-12.9,3.1-17,8.4L48,17.6l-1.9-2.5c-4.1-5.4-10.3-8.4-17-8.4c-11.8,0-21.4,9.6-21.4,21.4
	c0,20.4,33.7,41.3,40.3,45.2c6.6-3.6,40.2-23,40.2-45.2C88.3,16.3,78.7,6.7,66.9,6.7z"/>
<path class="st1" d="M66.9,2c-7.2,0-14,2.9-18.9,8.1C43.1,4.9,36.3,2,29.1,2C14.7,2,3,13.7,3,28.1c0,25.2,42.1,49,43.8,50l1.1,0.6
	l1.1-0.6c1.8-0.9,43.9-22.6,43.9-50C93,13.7,81.3,2,66.9,2z M48,73.3C41.5,69.4,7.7,48.5,7.7,28.1c0-11.8,9.6-21.4,21.4-21.4
	c6.7,0,12.9,3.1,17,8.4l1.9,2.5l1.9-2.5c4.1-5.4,10.3-8.4,17-8.4c11.8,0,21.4,9.6,21.4,21.4C88.3,50.3,54.7,69.7,48,73.3z"/>
</svg>
