<?xml version="1.0" encoding="utf-8"?>
<!-- Generator: Adobe Illustrator 21.0.2, SVG Export Plug-In . SVG Version: 6.00 Build 0)  -->
<svg version="1.1" id="Capa_1" xmlns="http://www.w3.org/2000/svg" xmlns:xlink="http://www.w3.org/1999/xlink" x="0px" y="0px"
	 viewBox="0 0 321 338" style="enable-background:new 0 0 321 338;" xml:space="preserve">
<style type="text/css">
	.st0{display:none;}
	.st1{fill:none;stroke:#EF6100;stroke-width:12;stroke-miterlimit:10;}
	.st2{fill:#EF6100;}
</style>
<path class="st0" d="M222.8,24h-15.7c-43.6,0-79.1,35.5-79.1,79.1v33.4h-26.8c-2.8,0-5,2.2-5,5v40c0,2.8,2.2,5,5,5H128V309
	c0,2.8,2.2,5,5,5h40c2.8,0,5-2.2,5-5V186.5h39.8c2.8,0,5-2.2,5-5v-40c0-2.8-2.2-5-5-5H178v-33.4C178,87,191.1,74,207.1,74h15.7
	c2.8,0,5-2.2,5-5V29C227.8,26.2,225.6,24,222.8,24z"/>
<path class="st1" d="M300,330H22c-6.6,0-12-5.4-12-12V20c0-6.6,5.4-12,12-12h278c6.6,0,12,5.4,12,12v298
	C312,324.6,306.6,330,300,330z"/>
<g>
	<path class="st2" d="M207.6,66.9h-94.4c-30.7,0-55.7,25-55.7,55.7V217c0,30.7,25,55.7,55.7,55.7h94.4c30.7,0,55.7-25,55.7-55.7
		v-94.4C263.3,91.9,238.3,66.9,207.6,66.9z M160.4,226.1c-31,0-56.3-25.3-56.3-56.3s25.3-56.3,56.3-56.3s56.3,25.3,56.3,56.3
		S191.4,226.1,160.4,226.1z M218,126.8c-9.2,0-16.6-7.5-16.6-16.6s7.5-16.6,16.6-16.6c9.2,0,16.6,7.5,16.6,16.6
		S227.2,126.8,218,126.8z"/>
	<path class="st2" d="M160.4,125.6c-24.4,0-44.2,19.8-44.2,44.2S136,214,160.4,214s44.2-19.8,44.2-44.2
		C204.6,145.5,184.7,125.6,160.4,125.6z"/>
	<path class="st2" d="M218,105.6c-2.5,0-4.6,2-4.6,4.6s2,4.6,4.6,4.6c2.5,0,4.6-2,4.6-4.6S220.5,105.6,218,105.6z"/>
</g>
</svg>
