<?xml version="1.0" encoding="utf-8"?>
<!-- Generator: Adobe Illustrator 21.0.2, SVG Export Plug-In . SVG Version: 6.00 Build 0)  -->
<svg version="1.1" id="Capa_1" xmlns="http://www.w3.org/2000/svg" xmlns:xlink="http://www.w3.org/1999/xlink" x="0px" y="0px"
	 viewBox="0 0 321 338" style="enable-background:new 0 0 321 338;" xml:space="preserve">
<style type="text/css">
	.st0{fill:#EF6100;}
	.st1{fill:none;stroke:#EF6100;stroke-width:12;stroke-miterlimit:10;}
</style>
<path class="st0" d="M222.8,24h-15.7c-43.6,0-79.1,35.5-79.1,79.1v33.4h-26.8c-2.8,0-5,2.2-5,5v40c0,2.8,2.2,5,5,5H128V309
	c0,2.8,2.2,5,5,5h40c2.8,0,5-2.2,5-5V186.5h39.8c2.8,0,5-2.2,5-5v-40c0-2.8-2.2-5-5-5H178v-33.4C178,87,191.1,74,207.1,74h15.7
	c2.8,0,5-2.2,5-5V29C227.8,26.2,225.6,24,222.8,24z"/>
<path class="st1" d="M300,330H22c-6.6,0-12-5.4-12-12V20c0-6.6,5.4-12,12-12h278c6.6,0,12,5.4,12,12v298
	C312,324.6,306.6,330,300,330z"/>
</svg>
