<?xml version="1.0" encoding="utf-8"?>
<!-- Generator: Adobe Illustrator 21.0.2, SVG Export Plug-In . SVG Version: 6.00 Build 0)  -->
<svg version="1.1" id="Layer_1" xmlns="http://www.w3.org/2000/svg" xmlns:xlink="http://www.w3.org/1999/xlink" x="0px" y="0px"
	 viewBox="0 0 598 398" style="enable-background:new 0 0 598 398;" xml:space="preserve">
<style type="text/css">
	.st0{display:none;}
	.st1{fill:#684704;stroke:#145EFF;stroke-miterlimit:10;}
	.st2{fill:#FFFFFF;stroke:#000000;stroke-miterlimit:10;}
	.st3{fill:none;stroke:#000000;stroke-miterlimit:10;}
	.st4{fill:#BE6213;}
	.st5{fill:#E4A930;}
	.st6{fill:#0B7075;}
</style>
<g id="Layer_1_1_" class="st0">
</g>
<g id="Layer_2">
	<path class="st1" d="M186.5,380.7l-4,5.8h136c3,5,11,5,15,0h138l-4-6"/>
	<polyline class="st1" points="186.5,380.7 209.5,366.5 458.5,366.5 467.5,380.5 	"/>
	<path class="st2" d="M467.5,384.5l-135-1c-1-2-3.3-4-7-6c19-16,71-2,141-4L467.5,384.5z"/>
	<path class="st2" d="M325.5,378.5c-2.7,1.1-4.3,2.8-5,5h-134v-11C265.5,369.5,321.5,366.5,325.5,378.5z"/>
	<path class="st2" d="M209.5,331.5l-23,41c68,0,128-10,139,6l-61-55L209.5,331.5z"/>
	<path class="st2" d="M405.5,292.5l12-3l49,84c-57,4-115-13-141,4l19-81L405.5,292.5z"/>
	<path class="st2" d="M450.5,363.5c-40-8-62-38-125,14c1.3-26.6,5.5-50.8,16-70c35.4,4.1,76.8,7.5,87,15L450.5,363.5z"/>
	<path class="st2" d="M391.5,250.5l43,74c-71-22-106,13-109,52.9c-3.2-36,6.5-79.7,22-126.9C362.3,246.2,377,245.3,391.5,250.5z"/>
	<path class="st2" d="M349,207l16,51c-25.5,34.5-46.5,63.5-38,120c-4.5-28.5-4.5-66.7-3-108C329,241.5,337.8,221.5,349,207z"/>
	<path class="st2" d="M270.5,292.5l-27-35l-54,73c26,43,122,21,136,48L270.5,292.5z"/>
	<path class="st2" d="M323.5,288.5c-13-18-44-23-50-65l-41,62c28,70,80,64,93,93C323,351.5,321.9,321.2,323.5,288.5z"/>
	<g>
		<path class="st3" d="M273.5,248.5c6,14,18,30.5,32,37"/>
		<path class="st3" d="M268.5,260.5c10.4,14.4,21.3,27.3,34,34"/>
		<path class="st3" d="M266.5,272.5c9.7,13.8,21.4,25.7,36,35"/>
		<path class="st3" d="M259.5,281.5c9.8,15.6,21.7,29.2,39,38"/>
		<path class="st3" d="M254.5,294.5c9.8,17.9,23.8,30,40,39"/>
		<path class="st3" d="M230.5,307.5c8,5.3,15.9,10.3,20.2,10.5"/>
		<path class="st3" d="M222.5,319.5c10.5,8.3,24.1,14,41,17"/>
		<path class="st3" d="M214.5,333.5c8.1,7.2,22.4,13.3,49,17"/>
		<path class="st3" d="M211.5,355.5c5.1,2.5,11.2,4.4,19,5"/>
		<line class="st3" x1="330.5" y1="251.5" x2="340.5" y2="233.5"/>
		<path class="st3" d="M344.5,242.5c-6.2,8.7-11,16.8-14,24"/>
		<path class="st3" d="M345.8,255.7c-6.4,8.9-12.4,17.8-17.3,26.8"/>
		<path class="st3" d="M350.5,261.5c-7.5,10.6-14.8,22.9-22,36"/>
		<line class="st3" x1="373.5" y1="263.5" x2="358.4" y2="267"/>
		<path class="st3" d="M378.5,277.5c-12.5-2.6-21.9,1.3-30,8"/>
		<path class="st3" d="M390.5,289.5c-17.4-2-32.7,2.7-46,14"/>
		<path class="st3" d="M348.5,317.5c14-11.9,30.6-18.5,53-14"/>
		<path class="st3" d="M406.5,333.5c-25.3-5-43.4-0.6-56,11"/>
		<line class="st3" x1="419.5" y1="357.5" x2="386.5" y2="357.5"/>
	</g>
</g>
<g id="adornos">
	<path class="st4" d="M427.5,23.5c-1.5,1.5-2.3,4.7-2,10c15,3,26-9,12-23C429,2,418.4,9,413.2,17.3c-7.1,11.3-4.4,26.3,1.1,37.8
		c1.7,3.6,3.8,6.9,6.2,10.1c1.1,1.5,7,6.7,7,8.2C427.5,50.5,422.5,28.5,427.5,23.5z"/>
	<path class="st4" d="M566.5,3.5c-18,18-40,32-51,70C531.5,47.5,568.5,24.5,566.5,3.5z"/>
	<path class="st5" d="M582.5,0.5c7.4,21.7,8.1,38.5,0,49c-12,11-55,20-71,40c10-21,39-28,58-47C576.2,37.7,580.2,22.4,582.5,0.5z"/>
	<path class="st6" d="M320.5,125.5c0.9,1.4,6.1,0.1,7.5-0.4c3.8-1.5,6.5-5.3,6.1-9.4c-0.4-4.5-4.3-8.3-8.7-9.1
		c-15.5-2.8-22.4,20.3-13.1,30.1c5.5,5.8,14.4,6.6,21.7,9c2.2,0.7,4.4,1.5,5.8,3.5c1.4,1.8,2.8,3.7,4.2,5.5c2.2,2.9,4.4,5.9,6.6,8.8
		l1,2c1.7,3.4,2.6,7.2,2.8,11c0.2,3.1-1,6.3-0.5,9.4c0.4,3,2.2,5.5,3.2,8.3c0.7,2,0.1,5,1.4,6.8c3.7,5.3,2.5-8.5,2.4-9.9
		c-0.1-2.4-0.4-4,0.4-6.2c1-2.9,1.9-5.9,2.3-9c0.4-2.8,0.5-5.5,0.4-8.3c-0.3-4.6-0.5-7.1-3.6-10.7c-3.2-3.7-6.4-7.5-9.6-11.2
		c-1.6-1.9-3.2-4.4-5.1-6.1c-2-1.7-4.5-1.6-6.9-2.1C330.9,135.8,324.9,132.1,320.5,125.5z"/>
	<path class="st5" d="M318.5,77.5c0.1-1.1,0.4-3-1-3.3c-1.8-0.5-5.5,2.4-5.9,4.1c-0.4,1.6,0.1,3.8,1,5.2c1.4,2.4,3.6,0.5,4.9-1
		c19.6,7.1,29.6,27.8,35,55l1-1C351.8,109.6,342.4,88.2,318.5,77.5z"/>
	<path class="st5" d="M363.5,72.5v6c0-0.2,2.4-1.4,2.7-1.6c0.8-0.5,1.5-1.1,2.2-1.8c1.1-1.1,1.9-2.4,2-4c0.2-2.5-1.3-4.7-3-6.4
		c-2.3-2.4-4.6-3.7-8.1-3.6c-2.9,0.1-6.2,1-8.4,3c-1.5,1.3-2.4,3.1-2.9,4.9c-1.8,6.7-0.2,14.7,3.4,20.5c1.6,2.6,3.5,5.1,5.3,7.6
		c1.8,2.7,3.2,5.5,4.9,8.3c6.4,10.5,12.3,25.5,18,42c-4-19.8-7.1-39.1-2-54c9.5-22.8,14.1-42.1,10-55c0,17-20,31-20,56
		c0-1.1,0-2.2,0-3.3c0-1.7,0.4-3.1-0.9-4.3c-1.2-1.2-2.1-2.5-2.6-4.2C363,79.4,363.5,75.9,363.5,72.5z"/>
	<path class="st6" d="M460.5,42.5c3.7-10.7,7.9-16.9,13-16C469.5,30.5,470.5,41.5,460.5,42.5z"/>
	<path class="st6" d="M462.5,49.5c13,2,9,10,13,19C462.5,66.5,468.5,58.5,462.5,49.5z"/>
	<path class="st5" d="M477.5,44.5c-2.3-1.9-5-4-4.6-7.4c0.3-2.1,2-4,3.8-4.9c3.2-1.6,7.3,0.8,8.9,3.6c1.6,2.7,1.1,6.1-0.2,8.9
		c-0.3,0.6-0.6,1.3-1,1.8c-1.6,1.9-4.1,3.3-6.6,3.8c-2.2,0.4-4.5,0.1-6.8-0.1c-2-0.2-4-0.2-6-0.2c-6.3,0.1-12.1,1.7-17.6,4.8
		c-1.5,0.9-2.9,2-4.1,3.3c-6.9,7.7-9.4,20-10,30c0.4-5.1-0.3-10.3-0.5-15.5c-0.3-7.8,1.2-14.6,6.7-20.2c3.1-3.2,7-5.6,11.1-7.4
		c2.9-1.2,6-2,9-2.9c2.8-0.9,5.8-1.8,8.8-1.6C471.9,40.7,475,42.4,477.5,44.5z"/>
	<path class="st5" d="M404.8,70.6c1.5,0.4,3.1,0.9,3.8,2.1c0.5,0.9,0.6,2,0.3,2.9s-0.8,1.8-1.5,2.6c-0.7,0.9-1.5,1.8-2.4,2.6
		c-0.8,0.7-1.6,1.3-1,2.3c0.4,0.7,1.8,1.1,2.6,1.3c3.9,0.8,8.3-2.8,8.6-6.7c0.1-1.4-0.3-2.8-1.1-4c-0.7-1.2-1.7-2.2-2.6-3.3
		c1.7,1.3,3.1,3.1,3.6,5.2c0.5,2.6-0.5,5.4-2,7.6c-0.2,0.3-0.4,0.6-0.5,1c-0.1,1.5,2.2,1.3,3,0.9c1.3-0.6,2.5-1.9,3.1-3.1
		c0.8-1.7,0.5-3.7-0.2-5.4c0.7,1.9,0.8,3.9,0.9,5.9c0,2.5,2.2,2,3.1,0.2c0.8-1.5,1-3.5,1-5.1c0.1,1.7,0.7,3.7,1.1,5.4
		c1.4-0.5,1.9,0.8,2.5,1.8c0.9,1.4,1.7,2.9,2.4,4.4c1.6,3.4,2.9,6.9,4.1,10.5c2.7,8.5,4.5,17.2,6.1,25.9c1,5.6,1.9,11.2,2.8,16.8
		c-0.3-16.9,0.6-35-4.9-51.2c-1.3-3.7-2.9-7.3-5.2-10.5c-2.2-3.1-4.6-6.4-7.4-9c-5.9-5.6-13.3-7.5-21.3-7.5c-3.4,0-7.7-0.2-10,2.8
		c-1.7,2.3-2.5,5.7-1.8,8.5c0.5,1.8,1.7,3.2,3.1,4.2c1,0.7,2,1.1,3.1,1.5c2,0.7,3.4,1.5,5.3,0.2c1.8-1.1,3.3-2.7,4.4-4.5
		c0.7-1.1,1.3-2.4,0.9-3.7c-0.2-0.8-0.9-1.5-1.6-1.9C406.5,71.1,405.7,70.8,404.8,70.6z"/>
	<path class="st5" d="M459.4,130.3c-1.2-1.4-3-3.3-4.9-1.8c-1.7,1.3-2.2,4.1-2.2,6.1c-0.3,12.7,14.5,9.5,18.7,1.5
		c3.9-7.4,1.6-17.6-6.7-20.6c-3.8-1.4-8-1.8-11.7,0.1c-4.6,2.3-7.3,7.2-9.1,11.8c-0.8,1.9-1,4.3-1.3,6.4c-0.4,2.3-0.8,4.6-1.1,6.9
		c-0.7,4.6-1.5,9.1-2.7,13.6c-1,3.8-2.4,7.6-4.6,10.9c-1.6,2.4-3.9,4.3-6.3,6c-2.4,1.8-4.8,3.7-7.4,5.3c-3.5,2.2-7.2,4.1-10.8,5.9
		c-7.5,3.9-15.7,7.7-21.6,13.9c-1.7,1.8-3.2,3.8-4.1,6c0.1-0.2,1.8-0.5,2.1-0.6c0.8-0.3,1.6-0.6,2.4-0.9c1.9-0.7,3.7-1.6,5.5-2.5
		c4.6-2.3,9-4.8,13.4-7.3c4.2-2.4,8.5-4.8,12.8-7.1c2.2-1.2,4.5-2.4,6.8-3.6c6.4-3.3,11.3-7.8,15.3-13.8c3-4.5,5.3-9.5,6.4-14.8
		c0.2-0.8,0.3-1.6,0.4-2.3c0.8-4.9,1.6-9.8,3-14.6c0.6-2,1.9-7.3,4.9-6.9C457.7,128.2,458.7,129.4,459.4,130.3z"/>
	<path class="st4" d="M332.5,184.5L332.5,184.5c0.4-0.8,1.7-1.6,2.5-2.1c0.8-0.4,1.8-0.8,2.6-0.4c0.5,0.3,0.9,0.8,1.2,1.3
		c1.2,2.4,0.8,5.4-1,7.4c-2.3,2.5-6.7,2.9-9.3,0.7c-2.4-2.1-3.4-5.7-2.9-8.8c0.6-3.9,3.4-7.2,7-9c0.9-0.4,1.8-0.8,2.7-0.9
		c3.5-0.6,8.3-0.9,11.6,0.6c1.4,0.6,3,2,4.1,3.1c0.4,0.4,2.6,3.8,2.7,3.8c-0.9-0.1-2.1-1.2-2.9-1.7c-1.1-0.7-2.2-1.3-3.4-1.8
		c-2.3-1-4.9-1.6-7.3-0.8c-1.9,0.6-3.5,1.9-4.8,3.5C334.2,180.8,333.3,182.6,332.5,184.5z"/>
	<path class="st6" d="M375.5,183.5c0.1,4.1,3.6,5.4,7.1,4.2c4.8-1.7,6.1-6.2,5.4-10.8c-0.3-1.9-1-3.7-2.3-5.1
		c-1.6-1.7-4.1-2.6-6.5-2.4c-19.3,1.5-5.2,35.3-6.8,45C374.2,204.2,375.9,193.9,375.5,183.5z"/>
	<path class="st4" d="M411,101.7c-1.3,2.7-2.1,6.6,0.5,8.1c1.8,1,4.2-0.1,5.1-1.9s0.4-4.1-0.6-5.9c-2.7-4.3-8.8-5.5-13.6-3.7
		c-4.8,1.8-8.3,6-10.7,10.4c-7.6,14-6.3,30.9-4.3,46.7c-5.2-6-6.7-14.4-6.6-22.4c0.2-19.1,10.5-46.4,34.5-41.9
		c5.2,1,10.4,4.1,11.9,9.1c1.3,4.1-0.2,8.6-2.7,12.1s-6.7,6.4-10.9,5.6c-3.4-0.6-6.2-3.7-6.7-7.1C406.4,107.4,408.1,103.7,411,101.7
		z"/>
	<path class="st5" d="M373.5,237.5c6.7-2.2,13.9-2.4,21-3c4.3-0.3,8.6-0.8,12.7-2.1c13.7-4.3,23.7-17.4,37.8-20.1
		c7.4-1.4,15.3,0.4,21.3,4.8c3.2,2.3,5.9,5.4,7.3,9.1c1.3,3.2,1.5,6.8,1.2,10.3c-0.4,4.6-1.6,9.1-3.9,13.1c-2,3.5-5.4,6.8-9.4,6.4
		c-3.4-0.3-6.1-3.2-7.6-6.3c-2.1-4.4-2.6-9.9,0.1-13.9s9-5.7,12.6-2.5c-2.7-2.3-7-2.7-10-0.8c-0.1-2-1.3-3.7-3-4.8s-3.6-1.5-5.6-1.6
		c-5.5-0.3-10.9,1.5-15.8,3.9c-3.3,1.6-6.6,3.5-9.9,5.2c-3.1,1.6-6.1,2.3-9.7,2.8c-1.7,0.2-3.3,0.4-5,0.6c-3.3,0.3-6.7,0.5-10.1,0.6
		c-6.7,0.1-13.5-0.3-20.1-1.2C376.1,237.9,374.8,237.7,373.5,237.5z"/>
	<path class="st4" d="M429.5,240.5c-0.4,0.2-2.4-1.5-2.8-1.7c-0.7-0.6-1.4-1.2-2-2c-0.9-1.2-1.4-2.7-1.2-4.2
		c0.6-4.4,6.3-6.9,10.3-6.6c4.2,0.3,7.7,3.6,9.5,7.2c5.1,10.4-6.2,21.3-16.2,22.3c-7.3,0.8-15.9-2.1-21.6-6.5
		c-2.6-2-4.8-4.5-6.8-7.1c-2.1-2.8-4-5.6-5.5-8.8s-3.1-6.3-5.4-8.9c-2.8-3.1-6-5.7-9.1-8.5c1.2,0,2.3,0.4,3.3,1
		c8.2,4.7,13.6,13.1,20.6,19.3c0.6,0.5,1.3,1.1,1.9,1.6C414.1,245.2,422.1,244.2,429.5,240.5z"/>
	<path class="st6" d="M465.5,154.5l-1,16c-9.8,2.6-17.2,1.4-19-8c-20,13-32.2,26.4-33.7,40.1l-3.2-1.5c-1.8-0.8,7.5-21.4,8.5-23.2
		c5.3-9.5,13.6-20.2,23.6-24.9c4.5-2.1,9.8-4.2,14.9-4C457.8,149.1,465.7,151,465.5,154.5z"/>
	<path class="st6" d="M493.1,14.6c2.8,0.3,5.3,2.2,6.8,4.5c2,3,3,6.6,3.6,10.1c1.8,9.6,1.1,19.5,0.9,29.2
		c-0.1,11.7-1.2,22.4-4.4,33.7c-3.6,12.4-8.5,24.5-13.7,36.3c-0.6,1.4-1.2,2.8-1.9,4.2c5.2-11.4,11.1-22.4,15.8-34
		c4.8-11.7,8.7-23.8,11.3-36.2c3.7-18,10.2-44.5-7.5-57.8c-2.2-1.7-4.8-2.9-7.6-3.1c-3.4-0.2-6.7,1.3-9.3,3.5c-2.4,2-4.5,4.9-4.2,8
		c0.2,2.6,2.1,5,4.5,6s5.3,0.7,7.6-0.5c0.5-0.3,1-0.6,1.2-1.1c0.3-0.7-0.2-1.6-0.9-2C494.7,14.8,493.9,14.7,493.1,14.6z"/>
	<path class="st4" d="M458.8,92.1c-0.1,0.1-0.2,0.2-0.3,0.3c4,0.8,5.6,6.4,3.1,9.6s-7.5,3.5-11,1.4s-5.2-6.2-5.6-10.3
		c-0.6-6.3,2.2-12.8,7.1-16.8c11.6-9.2,25.8-2.1,32.3,9.2c6.2,10.8,6.8,24.3,3.2,36.3c-3.6,11.9-11.2,22.4-20.2,31.1
		c6.5-7.2,11.4-16,13.3-25.6c1.9-9.5,0.7-19.8-4.2-28.2c-1.9-3.2-4.4-6.2-7.7-7.8C465.7,89.8,461.6,89.9,458.8,92.1z"/>
	<path class="st6" d="M552.6,154.8c-0.8,2.2-1.1,4.6-0.7,6.9c0.5,2.3,1.8,4.5,3.9,5.7c6.7,3.9,16-1.4,19.8-7.1
		c3.7-5.6,2.5-13.6-0.3-19.4c-2.1-4.6-5.4-8.5-9.2-11.8c-6.8-6-15.3-10-24.2-11.9c-13.9-3-28.4-0.8-42.3,2.3
		c10.4,0.2,20.8-0.1,31.1,1.2c10.3,1.4,20.6,4.5,28.8,10.9c5.2,4.1,9.6,10,9.6,16.6c0,4.3-2.6,8.9-6.9,9.7
		C558.8,158.6,555.5,156.6,552.6,154.8C552.7,154.7,552.6,154.7,552.6,154.8z"/>
	<path class="st4" d="M570.5,99.5c0.4,7.7,3.5,13.1,14,12c0.4,0-1.7,5.2-2,5.7c-1.2,1.6-2.8,2.7-4.7,3.4c-3.7,1.3-7.8,0.2-11-2
		c-2.7-1.9-3.7-6.3-4-9.5c-0.3-3.4,0.3-6.7,1.7-9.8c0.8-1.6,1.7-3.1,2.8-4.5c0.5-0.6,3.4-4.5,4.1-4.3c3.4,0.8,6.5,2.6,7,12
		c-0.7-7.8-5-14-12.9-15.6c-7.8-1.5-16.2,0.7-23.6,3.3c-9.6,3.4-18,11.1-25.6,17.7c-9.6,8.3-18.7,17.1-27.6,26
		c-3.4,3.4-6.7,6.8-10.1,10.2c-3.3,3.3-7.4,6.6-10.2,10.4l28-39c5.6-7.8,11.3-15.1,18.5-21.5c16.1-14.4,38.5-29.8,61-21.2
		c1.9,0.7,3.7,1.6,5.5,2.7c7.1,4.5,11.9,11.2,11.9,19.9c0,6.8-3,14.5-10.4,16c-7.2,1.5-12.9-4.3-12.6-11.4
		C570.5,99.8,570.5,99.7,570.5,99.5z"/>
	<path class="st5" d="M543.5,134.5c-3.4,0-6,1.8-5.7,5.4c0.2,3.1,2.2,6.6,5.5,7.2c3.3,0.6,6.7-2.1,7.2-5.3c0.7-4-2.3-7.8-5.7-9.7
		c-6.2-3.5-14.4,0.8-20.3,3.1c-7,2.7-13.9,5.7-21.4,6.9c-1.2,0.2-2.5,0.5-3.7,0.4c10,0.6,20.1,1.6,30.1,0.4c3.8-0.5,5.2-2.2,7.6-5.1
		c0.9-1.1,1.9-2.3,3.1-3.1C541.7,134,542.2,134.5,543.5,134.5z"/>
	<path class="st6" d="M522.5,221.5c-3.6,2.5-6-1.8-5.9-4.9c0.1-3,1.8-6.5,5-7.1c5.1-1,9.5,4.6,8.1,9.4c-1.3,4.3-6,7.1-9.9,8.8
		c-14.8,6.5-31.2-3.3-41.1-14c-5.2-5.6-10.5-11.3-17.3-15c-3.7-2-7.8-3.2-12-3.8c-2.2-0.3-4.4-0.4-6.7-0.3c-1.2,0-5.5-0.2-6.3,0.7
		c2.4-2.5,5.7-4,9.1-4.5c4-0.7,8.1-0.1,12.1,0.6c8.6,1.6,14.2,7.3,20.7,12.7c4.3,3.5,8.6,7.1,12.9,10.6c3.6,2.9,7.2,5.8,11.8,6.9
		c4.6,0.7,10-1,13.4-4.2C517.5,220.9,518.6,224.1,522.5,221.5z"/>
	<path class="st4" d="M500.5,170.5c-1.2-2.2-8.7,4.6-9.4,5.5c-3,3.9-4.1,9.2-3.6,14.1c0.4,3.9,2.1,6.8,4.7,9.7
		c3.7,4.3,9.1,7.4,14.8,8c7.3,0.8,14.5-3.2,20-7.6c5.2-4.2,9.4-10,10-16.9c0.6-7.3-1.7-14.8-5-21.3c-3.6-7.1-9.4-12.8-16.2-16.8
		c-3.3-2-6.8-4-10.6-4.8c-8.3-1.7-18.1,0.6-25.6,4.1c-7.4,3.4-13.8,8.6-19.3,14.5c-6.3,6.8-11.7,14.7-18,21.6
		c-5.5,6-11.4,11.7-18,16.5c-6.9,5-14.5,9.1-22.8,11.3c17.3,1.1,32-3,44.8-13.8C468,176.7,491.5,154.1,500.5,170.5z"/>
	<path class="st5" d="M362.6,242.3c0.7-5.5,2-11.2,5-15.9c3.7-5.8,10.7-10.2,17.7-8.6c4.6,1,9.1,2.8,13.6,4.3c2.2,0.8,4.4,1.5,6.7,2
		c2.4,0.5,5.1,0.8,7.3-0.6c2.2-1.4,3.8-3.8,5.1-6.1c5.3-9.4-6.1-16.6-14.2-17.6c-2.7-0.3-5.4-0.4-8.2-0.2
		C371.8,201.2,364,221.8,362.6,242.3z"/>
	<path class="st4" d="M359.6,147.5c0.7,0.2,1.3,0.6,1.8,1.1c2.7,3.1,2.7,7.3,0.4,10.6c-2.2,3.2-6.2,6.3-10.1,6.6
		c-2.7,0.2-5.8-0.3-8.1-1.9c-2.3-1.5-3.3-4.1-4-6.6c-0.6-2.3-1.1-4.8-1-7.2c0-2.3,1-4.5,2-6.6c1.6-3.4,4.4-6,7.8-7.4
		c2-0.9,4.2-1.3,6.4-1.6c6-0.6,11.3,0.5,16.8,3.1c3.3,1.6,6.4,3.7,9.2,6.2c2.9,2.6,5,5.9,7.3,9.1c2.2,2.9,4.3,5.9,5.5,9.4
		c1.7,5.2,1,10.9,0.3,16.1c-0.4,3.3-1,6.7-1.2,10c0.1-2-0.2-4.2-0.4-6.1c-0.2-2-0.4-4.1-0.6-6.1c-0.8-5.7-2.1-11.6-5.2-16.4
		c-2.7-4.1-6.6-7.4-11.2-9.3c-0.8-0.4-1.7-0.7-2.6-1C368.3,148.2,363.9,147.8,359.6,147.5z"/>
	<path class="st6" d="M382.5,202.5c15.5-13.6,12-38,15-56.2c1.1-6.4,3.2-13,8-17.7c2.5-2.4,5.5-4,8.8-4.9c7.5-2.1,16.5-0.7,21.1,6.1
		c5.3,7.9-0.8,17-7,22.1c-1.8,1.5-3.4,3.2-5.4,4.4c-2.4,1.4-5.4,2-7.8,3.5c-2.8,1.8-5.1,4.2-7.1,6.8c-5.8,7.3-9.9,15.8-15.1,23.6
		C389.9,194.6,386.6,198.9,382.5,202.5z"/>
</g>
<g id="Layer_4">
	<path class="st6" d="M157,50.9c1.9,0.8,3.7,3.6,5.3,8.7c-13.1,8-27.5,0.5-19.2-17.5c5-10.8,17.4-8,25.2-1.9
		c10.6,8.2,13.2,23.2,12,35.9c-0.4,3.9-1.2,7.8-2.3,11.6c-0.5,1.8-4.3,8.7-3.8,10.2C166.3,76.3,163.5,53.9,157,50.9z"/>
	<path class="st6" d="M19.6,79.9c23.1,10.7,48.6,16.3,72,48.2C67.6,109.2,25,100.3,19.6,79.9z"/>
	<path class="st4" d="M3.6,82.6c0.5,22.9,5.6,39,16.9,46c15.1,6.2,58.5-0.1,80.4,13.1c-16.6-16.3-46.3-12.9-70.6-24.2
		C22.3,115.4,13.3,102.4,3.6,82.6z"/>
	<path class="st5" d="M292.6,109.9c-0.4,1.6-5.7,2.2-7.1,2.2c-4.1-0.1-7.9-2.8-8.9-6.8c-1.1-4.4,1.2-9.3,5.1-11.6
		c13.6-8,28,11.4,22.6,23.8c-3.2,7.4-11.3,11.2-17.3,15.9c-1.9,1.5-3.6,2.9-4.3,5.3c-0.7,2.2-1.3,4.4-2,6.6c-1.1,3.5-2.1,7-3.2,10.5
		l-0.3,2.2c-0.4,3.8,0,7.6,1.2,11.3c0.9,3,3.1,5.5,3.7,8.6c0.6,3-0.2,5.9-0.2,8.9c0,2.1,1.6,4.8,1.1,6.8c-1.7,6.2-5.3-7.1-5.7-8.4
		c-0.7-2.2-1-3.9-2.5-5.7c-2-2.4-3.8-4.9-5.3-7.7c-1.3-2.4-2.4-5-3.2-7.7c-1.3-4.4-2-6.9-0.3-11.2c1.7-4.6,3.4-9.2,5.1-13.8
		c0.9-2.3,1.5-5.3,2.7-7.5c1.3-2.3,3.7-3,5.8-4.3C286.4,123.2,290.7,117.6,292.6,109.9z"/>
	<path class="st4" d="M278,64.1c-0.5-1-1.4-2.7-0.2-3.5c1.5-1.1,5.9,0.4,6.9,1.8c1,1.4,1.2,3.6,0.9,5.2c-0.5,2.7-3.2,1.7-4.9,0.8
		c-15.9,13.4-18.2,36.3-13.9,63.7l-1.3-0.6C257.8,105.7,259.2,82.4,278,64.1z"/>
	<path class="st4" d="M234,74.9l2.1,5.6c-0.1-0.2-2.7-0.5-3.1-0.6c-0.9-0.2-1.8-0.5-2.6-0.9c-1.4-0.7-2.6-1.6-3.2-3
		c-1-2.3-0.4-4.9,0.6-7.1c1.4-3,3.1-5.1,6.3-6.1c2.8-0.9,6.1-1.2,8.9-0.1c1.8,0.7,3.3,2,4.5,3.6c4,5.6,5.2,13.8,3.8,20.4
		c-0.6,3-1.6,6-2.3,9c-0.8,3.1-1.1,6.3-1.7,9.4c-2.3,12.1-2.7,28.1-2.5,45.6c-3-20-6.8-39.2-16.7-51.4
		c-16.8-18.2-27.7-34.7-28.3-48.2c5.8,16,29.4,22.2,38,45.7c-0.4-1-0.8-2.1-1.1-3.1c-0.6-1.6-1.4-2.8-0.6-4.4c0.7-1.6,1.1-3.1,1-4.8
		C236.8,81.2,235.1,78.1,234,74.9z"/>
	<path class="st5" d="M132.6,80.1c-7.1-8.7-13.3-13.2-17.7-10.6C120,71.9,122.9,82.6,132.6,80.1z"/>
	<path class="st5" d="M133.1,87.4c-11.5,6.3-5,12.5-5.7,22.3C139,103.3,130.6,97.9,133.1,87.4z"/>
	<path class="st4" d="M117.3,87.8c1.5-2.6,3.4-5.5,1.8-8.5c-1-1.8-3.2-3.1-5.3-3.3c-3.5-0.4-6.6,3.2-7.1,6.4c-0.5,3.1,1,6.1,3.2,8.3
		c0.5,0.5,1,1,1.6,1.4c2.2,1.3,4.9,1.7,7.4,1.3c2.3-0.4,4.3-1.5,6.3-2.5c1.8-0.9,3.7-1.6,5.6-2.2c5.9-2,11.9-2.6,18.1-1.6
		c6.7,1.1,12.3,6.8,16.2,12c3.3,4.4,5.9,9.4,8.5,14.3c-1.5-4.1-3-8.3-4.5-12.4c-2.8-7.7-5.9-15-13.7-18.8c-4-2-8.5-2.9-13-3.1
		c-3.1-0.1-6.3,0.2-9.4,0.3c-3,0.1-6,0.3-8.8,1.5C121.3,82.4,119,85,117.3,87.8z"/>
	<path class="st4" d="M194.5,87.4c-1.2,0.9-2.6,1.9-2.9,3.3c-0.2,1,0.2,2,0.8,2.9s1.4,1.4,2.3,2c1,0.6,2.1,1.2,3.1,1.6
		s2,0.6,1.7,1.8c-0.2,0.8-1.3,1.7-2,2.1c-3.4,2.1-8.8,0.2-10.4-3.3c-0.6-1.3-0.6-2.7-0.4-4.1c0.3-1.4,0.8-2.7,1.4-4
		c-1.2,1.8-1.9,4-1.6,6.1c0.4,2.7,2.3,4.9,4.5,6.5c0.3,0.2,0.6,0.5,0.8,0.8c0.6,1.4-1.6,2-2.5,1.9c-1.4-0.1-3-0.9-3.9-1.9
		c-1.3-1.3-1.7-3.4-1.7-5.1c0,2,0.6,4,1.2,5.8c0.8,2.3-1.3,2.6-2.8,1.3c-1.2-1.1-2.2-2.9-2.7-4.5c0.5,1.6,0.6,3.8,0.8,5.4
		c-1.5,0-1.5,1.4-1.7,2.5c-0.3,1.6-0.6,3.3-0.7,4.9c-0.4,3.7-0.4,7.5-0.2,11.2c0.4,8.9,1.7,17.7,3.2,26.4c1,5.6,2,11.2,3.1,16.7
		c-5.6-15.9-12.6-32.6-13-49.8c-0.1-3.9,0.3-7.8,1.3-11.6c1-3.6,2.1-7.6,3.8-11c3.6-7.3,9.9-11.6,17.4-14.4
		c3.2-1.2,7.1-2.9,10.3-0.8c2.4,1.6,4.3,4.5,4.6,7.4c0.2,1.8-0.5,3.5-1.5,5c-0.7,0.9-1.5,1.8-2.4,2.5c-1.6,1.4-2.6,2.6-4.9,2.1
		c-2.1-0.5-4-1.4-5.7-2.7c-1-0.8-2-1.8-2.1-3.1c-0.1-0.9,0.3-1.7,0.9-2.4C193.1,88.4,193.8,87.9,194.5,87.4z"/>
	<path class="st4" d="M163.9,162.2c0.6-1.7,1.7-4.1,4-3.3c2.1,0.7,3.5,3.1,4.2,5c4.7,11.8-10.3,14-17.1,7.9
		c-6.2-5.6-7.6-15.9-0.8-21.7c3.1-2.6,6.9-4.4,11-3.9c5.1,0.6,9.3,4.3,12.6,8c1.4,1.6,2.4,3.7,3.5,5.5c1.2,2,2.3,4,3.4,6.1
		c2.3,4,4.5,8.1,7.2,11.9c2.3,3.2,4.9,6.3,8.1,8.6c2.4,1.7,5.2,2.7,8,3.5c2.9,0.8,5.8,1.8,8.8,2.4c4,0.9,8.1,1.3,12.2,1.8
		c8.4,1.1,17.4,1.9,25.1,5.7c2.2,1.1,4.3,2.4,5.9,4.2c-0.1-0.1-1.9,0.2-2.1,0.2c-0.9,0-1.7,0-2.6,0c-2-0.1-4-0.2-6-0.5
		c-5.1-0.6-10.1-1.4-15.1-2.3c-4.8-0.8-9.6-1.6-14.4-2.3c-2.5-0.4-5.1-0.7-7.6-1c-7.2-0.9-13.3-3.5-19.1-7.7
		c-4.4-3.2-8.2-7.1-11.1-11.7c-0.4-0.7-0.8-1.4-1.2-2c-2.4-4.3-4.9-8.7-7.8-12.7c-1.3-1.7-4.3-6.2-7-4.8
		C164.7,159.6,164.2,161,163.9,162.2z"/>
	<path class="st6" d="M301.6,169.4L301.6,169.4c-0.6-0.6-2.2-1-3-1.1c-0.9-0.1-1.9-0.1-2.6,0.6c-0.4,0.4-0.6,1.1-0.7,1.7
		c-0.3,2.6,1.1,5.4,3.5,6.6c3,1.5,7.3,0.4,8.9-2.6c1.5-2.7,1.2-6.6-0.3-9.2c-1.9-3.4-5.7-5.6-9.6-6.1c-1-0.1-1.9-0.1-2.9,0.1
		c-3.5,0.7-8.1,2-10.7,4.6c-1.1,1.1-2.1,2.9-2.8,4.3c-0.2,0.5-1.2,4.4-1.3,4.5c0.8-0.4,1.5-1.8,2.1-2.6c0.8-1,1.6-2,2.5-2.9
		c1.8-1.7,4.1-3.1,6.5-3.3c2-0.1,4,0.6,5.7,1.6C298.7,166.5,300.2,167.9,301.6,169.4z"/>
	<path class="st5" d="M260.9,183.3c1.3,3.9-1.5,6.3-5.2,6.4c-5.1,0.1-7.8-3.7-8.8-8.3c-0.4-1.8-0.4-3.8,0.4-5.6
		c0.9-2.2,2.9-3.9,5.2-4.5c18.6-5.2,17,31.4,21.8,39.9C269.3,202.3,264.1,193.2,260.9,183.3z"/>
	<path class="st6" d="M199.5,118.7c2.2,2,4.2,5.5,2.3,7.8c-1.3,1.6-4,1.4-5.5,0s-1.8-3.7-1.4-5.7c1-5,6.4-8.2,11.5-8.2
		c5.1,0.1,9.8,2.8,13.6,6.1c11.9,10.5,16.6,26.8,20.1,42.3c2.8-7.4,1.3-15.8-1.5-23.3c-6.7-17.9-25.9-40-46.8-27.5
		c-4.5,2.7-8.3,7.4-8.1,12.7c0.2,4.3,3.1,8,6.7,10.5c3.6,2.4,8.4,3.7,12.2,1.5c3-1.8,4.6-5.6,3.9-9
		C205.7,122.4,202.8,119.6,199.5,118.7z"/>
	<path class="st4" d="M281.3,233.3c-7.1,0.2-13.9,2.5-20.7,4.4c-4.1,1.2-8.3,2.2-12.6,2.4c-14.4,0.7-28.2-8.2-42.4-5.9
		c-7.4,1.2-14.2,5.6-18.4,11.8c-2.2,3.3-3.7,7.1-3.8,11.1c-0.1,3.5,0.9,6.9,2.4,10.1c1.9,4.2,4.6,8,8.1,11c3.1,2.6,7.4,4.5,11.1,2.8
		c3.1-1.5,4.6-5.1,5-8.6c0.5-4.8-0.9-10.2-4.8-13.1s-10.4-2.3-12.7,2c1.8-3.1,5.6-4.9,9.1-4.2c-0.6-1.9,0-4,1.2-5.5
		c1.2-1.6,2.9-2.6,4.7-3.4c5-2.2,10.7-2.3,16.2-1.8c3.7,0.4,7.4,1,11.1,1.5c3.5,0.4,6.5,0.1,10.1-0.7c1.6-0.4,3.3-0.7,4.9-1.2
		c3.3-0.8,6.5-1.8,9.7-2.9c6.4-2.2,12.5-4.9,18.5-8C279.1,234.6,280.2,234,281.3,233.3z"/>
	<path class="st6" d="M229.8,255.4c0.4,0,1.8-2.2,2-2.6c0.5-0.8,0.9-1.6,1.2-2.5c0.4-1.4,0.4-3-0.3-4.4c-2.1-3.9-8.3-4.3-12-2.7
		c-3.9,1.7-6,6-6.4,10c-1.2,11.5,13.2,17.8,22.9,15.4c7.1-1.8,14.2-7.4,18-13.5c1.8-2.8,3-5.9,3.9-9c1-3.4,1.8-6.7,2.1-10.2
		c0.3-3.5,0.7-7,2-10.3c1.5-3.9,3.7-7.5,5.6-11.1c-1.1,0.4-2,1.2-2.8,2.1c-6.1,7.2-8.2,17-12.7,25.2c-0.4,0.7-0.8,1.5-1.2,2.2
		C245.9,254.4,238.1,256.3,229.8,255.4z"/>
	<path class="st5" d="M166.4,187l6.4,14.7c10.1-1,16.6-4.6,15.1-14c23.3,5.3,39.3,13.7,45.5,26.1l2.5-2.5c1.4-1.4-14.4-17.5-16-18.9
		c-8.2-7.1-19.7-14.3-30.7-15.3c-5-0.5-10.6-0.6-15.3,1.4C171.8,179.2,165,183.8,166.4,187z"/>
	<path class="st5" d="M92.4,65.2c-2.5,1.2-4.2,3.8-4.9,6.6c-0.9,3.5-0.5,7.2,0.1,10.7c1.6,9.6,5.7,18.7,9.2,27.7
		c4.2,10.9,8.8,20.6,15.7,30.1c7.6,10.4,16.4,20,25.4,29.3c1.1,1.1,2.1,2.2,3.2,3.3c-8.8-8.9-18.1-17.2-26.6-26.5
		c-8.5-9.4-16.4-19.3-23-30.1c-9.8-15.7-25-38.3-12.9-56.9c1.5-2.3,3.5-4.4,6.1-5.5c3.1-1.3,6.7-1.1,9.9,0.1c3,1,5.9,3.1,6.7,6.1
		c0.7,2.5-0.2,5.4-2.2,7.2s-4.7,2.5-7.3,2.1c-0.5-0.1-1.1-0.2-1.5-0.7c-0.5-0.6-0.4-1.6,0.1-2.2C90.9,65.9,91.7,65.5,92.4,65.2z"/>
	<path class="st6" d="M151.2,126.1c0.1,0.1,0.3,0.1,0.4,0.2c-3.5,2.1-3,8,0.4,10.1s8.3,0.7,10.8-2.5s2.8-7.7,1.7-11.6
		c-1.6-6.1-6.5-11.3-12.5-13.3c-14-4.7-25,6.9-27.2,19.8c-2.1,12.3,2,25.2,9.5,35.2s18.2,17.2,29.6,22.2
		c-8.6-4.6-16.2-11.1-21.3-19.4c-5.1-8.3-7.5-18.4-5.8-27.9c0.6-3.7,1.9-7.4,4.6-10C143.9,126.3,147.9,124.9,151.2,126.1z"/>
	<path class="st5" d="M84.7,217.2c1.5,1.8,2.7,4,3,6.3c0.4,2.3-0.1,4.9-1.7,6.7c-5,6-15.5,4.2-21,0.2c-5.4-4-7-11.9-6.4-18.3
		c0.4-5,2.2-9.9,4.6-14.3c4.4-8,11-14.7,18.7-19.5c12.1-7.6,26.4-10.6,40.5-12.4c-9.7,3.7-19.6,7-28.8,11.8S75.8,189,70.3,197.8
		c-3.5,5.6-5.6,12.7-3.3,18.9c1.5,4,5.6,7.5,9.8,6.8C80.2,222.9,82.6,219.9,84.7,217.2L84.7,217.2z"/>
	<path class="st6" d="M48.9,171.5c2.3,7.4,1.2,13.5-9,16.1c-0.4,0.1,3.3,4.3,3.8,4.6c1.6,1.1,3.6,1.6,5.5,1.6
		c3.9-0.1,7.4-2.5,9.6-5.6c1.9-2.8,1.3-7.2,0.5-10.3c-0.8-3.3-2.6-6.2-5-8.6c-1.3-1.2-2.7-2.3-4.2-3.3c-0.7-0.4-4.7-3.1-5.3-2.7
		c-2.9,1.9-5.2,4.7-2.4,13.7c-2-7.6-0.2-14.9,6.8-19.1c6.8-4.1,15.5-4.9,23.3-5c10.1-0.1,20.8,4.3,30.1,7.8
		c11.9,4.4,23.4,9.6,34.9,14.9c4.3,2,8.6,4,13,6.1c4.2,2,9.3,3.7,13.1,6.3l-39.7-27c-7.9-5.4-15.8-10.2-24.8-13.8
		c-20.1-7.9-46.4-14.7-64.6,1.1c-1.5,1.3-3,2.8-4.2,4.4c-5.1,6.7-7.3,14.6-4.4,22.7c2.3,6.4,7.8,12.6,15.3,11.5
		c7.3-1.1,10.6-8.5,7.9-15C49,171.8,49,171.6,48.9,171.5z"/>
	<path class="st4" d="M86.3,195c3.2-1.2,6.3-0.4,7.3,3.1c0.9,3,0.3,7-2.7,8.7c-2.9,1.7-7,0.3-8.6-2.5c-2-3.6-0.5-8.1,2-11.1
		c4.6-5.4,13.8-4.2,20.1-4.1c7.5,0.2,15.1,0.6,22.4-0.9c1.2-0.2,2.5-0.4,3.6-0.9c-9.2,4-18.3,8.4-28.1,10.8
		c-3.7,0.9-5.7-0.3-8.9-2.1c-1.2-0.7-2.5-1.6-4-1.8C87.9,194,87.5,194.6,86.3,195z"/>
	<path class="st4" d="M135.9,269.5c4.2,1.1,5-3.7,3.8-6.6c-1.1-2.8-3.9-5.5-7.1-4.9c-5.2,0.8-7.3,7.6-4.3,11.6
		c2.7,3.6,8.1,4.6,12.3,4.8c16.1,1.1,28.2-13.9,33.8-27.3c2.9-7,6-14.3,11.1-20.1c2.8-3.2,6.2-5.7,9.9-7.7c2-1,4-1.9,6.2-2.5
		c1.2-0.4,5.1-2,6.2-1.5c-3.1-1.5-6.7-1.8-10.1-1.1c-4,0.8-7.7,2.7-11.1,4.7c-7.6,4.5-10.8,11.8-15.1,19.1
		c-2.8,4.8-5.6,9.6-8.4,14.4c-2.3,4-4.8,7.9-8.7,10.5c-4.1,2.3-9.8,2.5-14,0.7C140.4,267.2,140.5,270.7,135.9,269.5z"/>
	<path class="st6" d="M139.1,214c0.4-2.5,9.7,1.3,10.7,1.9c4.2,2.7,7,7.3,8.3,12c1,3.7,0.3,7.1-1,10.7c-2,5.4-6,10.1-11.2,12.6
		c-6.6,3.2-14.7,2-21.4-0.3c-6.4-2.2-12.3-6.2-15.2-12.4c-3.1-6.7-3.5-14.5-2.6-21.7c0.9-7.9,4.4-15.2,9.4-21.3c2.4-3,5-6.1,8.3-8.2
		c7.2-4.5,17.2-5.7,25.5-5c8.1,0.7,15.9,3.3,23.1,7c8.3,4.2,16,9.8,24.3,14.1c7.2,3.8,14.8,7.1,22.6,9.3c8.2,2.4,16.8,3.6,25.3,2.8
		c-15.9,7-31.1,8.2-46.8,2.4C171.7,208.7,141.9,195.5,139.1,214z"/>
	<path class="st4" d="M293.2,234c-2.6-5-5.7-9.8-10.2-13.2c-5.4-4.1-13.5-5.9-19.6-2c-4,2.6-7.6,5.7-11.3,8.8
		c-1.8,1.5-3.6,2.9-5.6,4.1c-2.1,1.3-4.5,2.5-7,1.9c-2.6-0.5-4.9-2.3-6.8-3.9c-8.2-7,0-17.7,7.3-21.4c2.4-1.2,5-2.3,7.6-3
		C270.4,198.7,284.9,215.2,293.2,234z"/>
	<path class="st6" d="M263.5,143.9c-0.6,0.4-1,1-1.3,1.7c-1.5,3.8,0,7.8,3.3,10.1c3.1,2.2,8,3.7,11.7,2.7c2.6-0.7,5.3-2.3,7-4.6
		c1.6-2.2,1.7-5,1.5-7.6c-0.2-2.4-0.7-4.9-1.5-7.1c-0.8-2.2-2.5-3.9-4.1-5.5c-2.7-2.6-6.1-4.1-9.9-4.3c-2.2-0.1-4.4,0.2-6.5,0.7
		c-5.9,1.5-10.5,4.4-14.7,8.7c-2.6,2.7-4.8,5.7-6.5,9c-1.8,3.5-2.7,7.3-3.7,11c-1,3.5-2,7.1-1.9,10.7c0.2,5.4,2.8,10.6,5.3,15.3
		c1.6,3,3.2,5.9,4.6,9c-0.8-1.8-1.2-4-1.7-5.9c-0.6-2-1.1-4-1.5-6c-1.3-5.6-2-11.6-0.7-17.2c1.1-4.8,3.7-9.2,7.3-12.6
		c0.7-0.6,1.4-1.2,2.1-1.8C255.6,147.6,259.5,145.8,263.5,143.9z"/>
	<path class="st5" d="M260.9,203.5c-19.2-7.4-24.3-31.5-33.5-47.6c-3.2-5.7-7.5-11.2-13.6-13.9c-3.1-1.4-6.6-1.8-10-1.6
		c-7.7,0.6-15.7,5-17.7,13c-2.3,9.2,6.6,15.6,14.2,18.4c2.2,0.8,4.3,1.9,6.6,2.3c2.7,0.5,5.7,0,8.5,0.6c3.2,0.7,6.2,2.2,9,3.9
		c8,4.8,14.8,11.4,22.3,16.9C251.2,198.7,255.8,201.6,260.9,203.5z"/>
</g>
</svg>
