<?xml version="1.0" encoding="utf-8"?>
<!-- Generator: Adobe Illustrator 21.0.2, SVG Export Plug-In . SVG Version: 6.00 Build 0)  -->
<svg version="1.1" id="Layer_1" xmlns="http://www.w3.org/2000/svg" xmlns:xlink="http://www.w3.org/1999/xlink" x="0px" y="0px"
	 viewBox="0 0 263.1 174.6" style="enable-background:new 0 0 263.1 174.6;" xml:space="preserve">
<style type="text/css">
	.st0{fill:#FFFFFF;}
	.st1{fill:#BE6213;}
</style>
<path class="st0" d="M7.2,168.8c0-53.9,0-107.7,0-161.6c83.5,0,166.9,0,250.4,0c0,53.9,0,107.7,0,161.6
	C174.1,168.8,90.7,168.8,7.2,168.8z M162.8,12c-25.3,0-50.6,0-76,0c-2,0-4,0-5.9,0.5c-7.3,1.9-11.7,9.4-10.6,17.9
	c1.1,8.2,7,13.4,15.7,13.4c50.9,0,101.8,0,152.7,0c10.1,0,16.5-6.3,16.5-15.9c0-9.7-6.4-15.9-16.5-15.9C213.4,12,188.1,12,162.8,12z
	 M162.5,162.4c25.3,0,50.6,0,76,0c2,0,4,0,5.9-0.6c7.3-2,11.8-9.7,10.6-17.9c-1.1-8.1-7.3-13.4-15.8-13.4c-50.9,0-101.8,0-152.7,0
	c-10.1,0-16.5,6.3-16.5,16c0,9.7,6.4,15.9,16.5,15.9C111.9,162.4,137.2,162.4,162.5,162.4z M162.8,71.3c-25.5,0-50.9,0-76.4,0
	c-10,0-16.5,6.4-16.4,16.1c0.1,9.6,6.5,15.8,16.2,15.8c14.7,0,29.3,0,44,0c36.2,0,72.5,0,108.7,0c6.7,0,11.6-2.6,14.5-8.6
	c5.1-10.4-1.7-23.7-14.8-23.5C213.5,71.6,188.1,71.3,162.8,71.3z M35.4,48.1c11.2,0,20.4-9.3,20.2-20.4c-0.2-11.1-9.1-20-20.2-20.1
	c-11.2-0.1-20.3,8.9-20.4,20.2C15.1,39.2,24.1,48.1,35.4,48.1z M35.3,107.4c11.2,0,20.4-9.1,20.3-20.2c0-11.1-8.9-20-20-20.2
	c-11.3-0.1-20.4,8.8-20.5,20C15.1,98.4,24,107.4,35.3,107.4z M35.4,126.3c-11.3,0-20.3,9-20.2,20.3c0.1,11.1,8.9,20,20,20.1
	c11.2,0.1,20.4-8.9,20.5-20.1C55.8,135.4,46.6,126.3,35.4,126.3z"/>
<path class="st1" d="M162.8,12c25.3,0,50.6,0,76,0c10.1,0,16.5,6.2,16.5,15.9c0,9.7-6.5,15.9-16.5,15.9c-50.9,0-101.8,0-152.7,0
	c-8.6,0-14.6-5.2-15.7-13.4c-1.1-8.5,3.3-16,10.6-17.9c1.9-0.5,3.9-0.5,5.9-0.5C112.1,12,137.5,12,162.8,12z"/>
<path class="st1" d="M162.5,162.4c-25.3,0-50.6,0-76,0c-10.1,0-16.5-6.2-16.5-15.9c0-9.7,6.4-16,16.5-16c50.9,0,101.8,0,152.7,0
	c8.5,0,14.6,5.3,15.8,13.4c1.2,8.2-3.4,16-10.6,17.9c-1.9,0.5-3.9,0.6-5.9,0.6C213.2,162.4,187.9,162.4,162.5,162.4z"/>
<path class="st1" d="M162.8,71.3c25.3,0,50.6,0.4,76-0.1c13.1-0.3,19.9,13.1,14.8,23.5c-2.9,6-7.8,8.6-14.5,8.6
	c-36.2-0.1-72.5,0-108.7,0c-14.7,0-29.3,0-44,0c-9.8,0-16.2-6.2-16.2-15.8c-0.1-9.7,6.4-16.1,16.4-16.1
	C111.9,71.2,137.4,71.3,162.8,71.3z"/>
<path class="st1" d="M35.4,48.1c-11.3,0-20.3-8.9-20.3-20.2c0-11.3,9.1-20.3,20.4-20.2c11.1,0.1,20,9,20.2,20.1
	C55.8,38.9,46.6,48.1,35.4,48.1z"/>
<path class="st1" d="M35.3,107.4c-11.3,0-20.2-9-20.2-20.3c0.1-11.3,9.2-20.2,20.5-20c11.1,0.1,20,9.1,20,20.2
	C55.7,98.3,46.6,107.4,35.3,107.4z"/>
<path class="st1" d="M35.4,126.3c11.2,0,20.4,9.1,20.3,20.3c-0.1,11.2-9.3,20.3-20.5,20.1c-11.2-0.1-20-9-20-20.1
	C15.1,135.3,24,126.3,35.4,126.3z"/>
</svg>
